# xmcd CD database file
#
# Track frame offsets:
#	182
#	15490
#	54315
#	73497
#	97782
#	126927
#	158662
#	190452
#	213377
#
# Disc length: 3112 seconds
#
# Revision: 0
# Processed by: cddbd v1.4PL0 Copyright (c) Steve Scherf et al.
# Submitted via: CDex 1.40Release
#
DISCID=780c2609
DTITLE=Mark Hodgson - Wednesday night at the Boot
DYEAR=1996
DGENRE=Blues
TTITLE0=wednesday night at the boot
TTITLE1=muddy waters
TTITLE2=mister blues
TTITLE3=cost too much
TTITLE4=caledonia
TTITLE5=voodoo chile
TTITLE6=starless night
TTITLE7=waiting full circle
TTITLE8=lifes blue highway
EXTD=YEAR: 1996 ID3G: 0
EXTT0=
EXTT1=
EXTT2=
EXTT3=
EXTT4=
EXTT5=
EXTT6=
EXTT7=
EXTT8=
PLAYORDER=
